<svg xmlns="http://www.w3.org/2000/svg" viewBox="0 0 512 512" style="enable-background:new 0 0 512 512" xml:space="preserve">
  <path style="fill:#e6eaea" d="M503.983 55.582H8.017A8.017 8.017 0 0 0 0 63.599v436.109a8.017 8.017 0 0 0 8.017 8.017h495.967a8.016 8.016 0 0 0 8.017-8.017V63.599a8.017 8.017 0 0 0-8.018-8.017z"/>
  <path style="fill:#cdd4d5" d="M8.017 55.582A8.017 8.017 0 0 0 0 63.599v436.109a8.017 8.017 0 0 0 8.017 8.017H256V55.582H8.017z"/>
  <path style="fill:#365558" d="M256 97.269a8.017 8.017 0 0 1-8.017-8.017v-76.96A8.017 8.017 0 0 1 256 4.275a8.016 8.016 0 0 1 8.017 8.017v76.96A8.016 8.016 0 0 1 256 97.269zm68.409 0a8.016 8.016 0 0 1-8.017-8.017v-76.96a8.016 8.016 0 0 1 8.017-8.017 8.016 8.016 0 0 1 8.017 8.017v76.96a8.015 8.015 0 0 1-8.017 8.017zm68.409 0a8.016 8.016 0 0 1-8.017-8.017v-76.96c0-4.428 3.588-8.017 8.017-8.017s8.017 3.588 8.017 8.017v76.96a8.015 8.015 0 0 1-8.017 8.017zm68.41 0a8.016 8.016 0 0 1-8.017-8.017v-76.96c0-4.428 3.588-8.017 8.017-8.017s8.017 3.588 8.017 8.017v76.96a8.017 8.017 0 0 1-8.017 8.017zm-273.637 0a8.017 8.017 0 0 1-8.017-8.017v-76.96c0-4.428 3.589-8.017 8.017-8.017s8.017 3.588 8.017 8.017v76.96a8.017 8.017 0 0 1-8.017 8.017zm-68.409 0a8.017 8.017 0 0 1-8.017-8.017v-76.96a8.017 8.017 0 0 1 8.017-8.017 8.017 8.017 0 0 1 8.017 8.017v76.96a8.017 8.017 0 0 1-8.017 8.017zm-68.41 0a8.017 8.017 0 0 1-8.017-8.017v-76.96c0-4.428 3.589-8.017 8.017-8.017s8.017 3.588 8.017 8.017v76.96a8.016 8.016 0 0 1-8.017 8.017z"/>
  <path style="fill:#4acfd9" d="M469.779 252.259H42.221a8.017 8.017 0 0 0-8.017 8.017v68.409a8.017 8.017 0 0 0 8.017 8.017h427.557a8.016 8.016 0 0 0 8.017-8.017v-68.409a8.015 8.015 0 0 0-8.016-8.017z"/>
  <path style="fill:#0295aa" d="M42.221 252.259a8.017 8.017 0 0 0-8.017 8.017v68.409a8.017 8.017 0 0 0 8.017 8.017H256v-84.443H42.221z"/>
  <path style="fill:#f0353d" d="M187.591 123.992H50.772a8.017 8.017 0 0 0-8.017 8.017v76.96a8.017 8.017 0 0 0 8.017 8.017h47.016l14.722 22.083a8.014 8.014 0 0 0 13.34 0l14.724-22.083h47.016a8.017 8.017 0 0 0 8.017-8.017v-76.96a8.015 8.015 0 0 0-8.016-8.017z"/>
  <path style="fill:#fff" d="M161.937 191.332a8.017 8.017 0 0 1-8.017-8.017v-25.653c0-4.428 3.589-8.017 8.017-8.017s8.017 3.588 8.017 8.017v25.653a8.016 8.016 0 0 1-8.017 8.017z"/>
  <path style="fill:#ff8c29" d="M461.228 123.992H324.409a8.016 8.016 0 0 0-8.017 8.017v76.96a8.016 8.016 0 0 0 8.017 8.017h47.016l14.722 22.083a8.014 8.014 0 0 0 13.34 0l14.724-22.083h47.016a8.016 8.016 0 0 0 8.017-8.017v-76.96a8.015 8.015 0 0 0-8.016-8.017z"/>
  <path style="fill:#fff" d="M435.574 191.332a8.016 8.016 0 0 1-8.017-8.017v-25.653c0-4.428 3.588-8.017 8.017-8.017s8.017 3.588 8.017 8.017v25.653a8.015 8.015 0 0 1-8.017 8.017z"/>
  <path style="fill:#cdd4d5" d="M324.409 363.424h-47.016l-14.722-22.083a8.014 8.014 0 0 0-13.34 0l-14.724 22.083h-47.016a8.017 8.017 0 0 0-8.017 8.017v76.96a8.017 8.017 0 0 0 8.017 8.017h136.818a8.016 8.016 0 0 0 8.017-8.017v-76.96a8.015 8.015 0 0 0-8.017-8.017z"/>
  <path style="fill:#9baaab" d="m249.33 341.34-14.723 22.083h-47.016a8.017 8.017 0 0 0-8.017 8.017v76.96a8.017 8.017 0 0 0 8.017 8.017H256V337.77a8.015 8.015 0 0 0-6.67 3.57z"/>
  <path style="fill:#fff" d="M298.756 430.764a8.016 8.016 0 0 1-8.017-8.017v-25.653c0-4.428 3.588-8.017 8.017-8.017s8.017 3.588 8.017 8.017v25.653a8.017 8.017 0 0 1-8.017 8.017z"/>
</svg>
